<svg xmlns="http://www.w3.org/2000/svg" width="169" height="169" viewBox="0 0 169 169" fill="none">
  <path d="M84.5 169C131.168 169 169 136.572 169 96.5711C169 56.5699 131.168 24.1425 84.5 24.1425C37.832 24.1425 0 56.5699 0 96.5711C0 136.572 37.832 169 84.5 169Z" fill="#1A1A1A"/>
  <path d="M84.5001 120.714C117.834 120.714 144.857 93.6915 144.857 60.3572C144.857 27.0228 117.834 0 84.5001 0C51.1658 0 24.1429 27.0228 24.1429 60.3572C24.1429 93.6915 51.1658 120.714 84.5001 120.714Z" fill="#1A1A1A"/>
  <path d="M48.2861 24.1438L36.2142 0L60.358 12.0719L48.2861 24.1438Z" fill="#1A1A1A"/>
  <path d="M120.715 24.1438L132.787 0L108.643 12.0719L120.715 24.1438Z" fill="#1A1A1A"/>
  <path d="M65.1863 74.8438C73.1868 74.8438 79.6725 66.1962 79.6725 55.5288C79.6725 44.8614 73.1868 36.2138 65.1863 36.2138C57.1857 36.2138 50.7 44.8614 50.7 55.5288C50.7 66.1962 57.1857 74.8438 65.1863 74.8438Z" fill="#FFD700"/>
  <path d="M103.815 74.8438C111.815 74.8438 118.301 66.1962 118.301 55.5288C118.301 44.8614 111.815 36.2138 103.815 36.2138C95.8144 36.2138 89.3287 44.8614 89.3287 55.5288C89.3287 66.1962 95.8144 74.8438 103.815 74.8438Z" fill="#FFD700"/>
  <path d="M65.186 67.6001C69.1863 67.6001 72.4291 64.3573 72.4291 60.357C72.4291 56.3568 69.1863 53.1139 65.186 53.1139C61.1857 53.1139 57.9429 56.3568 57.9429 60.357C57.9429 64.3573 61.1857 67.6001 65.186 67.6001Z" fill="black"/>
  <path d="M103.815 67.6001C107.815 67.6001 111.058 64.3573 111.058 60.357C111.058 56.3568 107.815 53.1139 103.815 53.1139C99.8145 53.1139 96.5716 56.3568 96.5716 60.357C96.5716 64.3573 99.8145 67.6001 103.815 67.6001Z" fill="black"/>
  <path opacity="0.6" d="M57.943 89.3297C60.6099 89.3297 62.7718 85.0058 62.7718 79.6722C62.7718 74.3385 60.6099 70.0146 57.943 70.0146C55.2762 70.0146 53.1143 74.3385 53.1143 79.6722C53.1143 85.0058 55.2762 89.3297 57.943 89.3297Z" fill="#4A9EFF"/>
  <path opacity="0.6" d="M111.057 89.3297C113.724 89.3297 115.886 85.0058 115.886 79.6722C115.886 74.3385 113.724 70.0146 111.057 70.0146C108.39 70.0146 106.229 74.3385 106.229 79.6722C106.229 85.0058 108.39 89.3297 111.057 89.3297Z" fill="#4A9EFF"/>
  <path d="M72.4286 84.5003C80.4766 81.2811 88.5245 81.2811 96.5724 84.5003" stroke="#666666" stroke-width="3.62143"/>
</svg>