<svg xmlns="http://www.w3.org/2000/svg" width="24" height="24" viewBox="0 0 24 24" fill="none">
  <path fill-rule="evenodd" clip-rule="evenodd" d="M12.5931 23.2582L12.582 23.2602L12.511 23.2952L12.491 23.2992L12.477 23.2952L12.406 23.2602C12.3954 23.2568 12.3874 23.2585 12.382 23.2652L12.378 23.2752L12.361 23.7032L12.366 23.7232L12.376 23.7362L12.48 23.8102L12.495 23.8142L12.507 23.8102L12.611 23.7362L12.623 23.7202L12.627 23.7032L12.61 23.2762C12.6074 23.2655 12.6017 23.2595 12.5931 23.2582ZM12.858 23.1452L12.845 23.1472L12.66 23.2402L12.65 23.2502L12.647 23.2612L12.665 23.6912L12.67 23.7032L12.6781 23.7102L12.879 23.8032C12.8917 23.8065 12.9014 23.8038 12.908 23.7952L12.912 23.7812L12.878 23.1672C12.8747 23.1552 12.868 23.1478 12.858 23.1452ZM12.143 23.1472C12.1386 23.1445 12.1334 23.1436 12.1283 23.1448C12.1233 23.1459 12.1189 23.1489 12.116 23.1532L12.11 23.1672L12.076 23.7812C12.0767 23.7932 12.0824 23.8012 12.0931 23.8052L12.108 23.8032L12.309 23.7102L12.319 23.7022L12.323 23.6912L12.34 23.2612L12.337 23.2492L12.327 23.2392L12.143 23.1472Z" fill="#9A9AA3"/>
  <path fill-rule="evenodd" clip-rule="evenodd" d="M20.131 3.1601C19.5684 2.59768 18.8055 2.28174 18.01 2.28174C17.2145 2.28174 16.4516 2.59768 15.889 3.1601L15.182 3.8681L20.132 8.8181L20.838 8.1111C21.1167 7.83252 21.3377 7.50178 21.4885 7.13777C21.6393 6.77376 21.7169 6.38361 21.7169 5.9896C21.7169 5.59559 21.6393 5.20544 21.4885 4.84143C21.3377 4.47742 21.1167 4.14668 20.838 3.8681L20.131 3.1601ZM18.717 10.2321L13.767 5.2821L4.67703 14.3731C4.47811 14.5721 4.33915 14.8229 4.27603 15.0971L3.24703 19.5521C3.20868 19.7175 3.21308 19.8899 3.2598 20.0531C3.30653 20.2164 3.39404 20.365 3.51408 20.485C3.63413 20.6051 3.78277 20.6926 3.94599 20.7393C4.10921 20.786 4.28164 20.7904 4.44703 20.7521L8.90303 19.7241C9.17683 19.6608 9.42735 19.5219 9.62603 19.3231L18.717 10.2321Z" fill="#9A9AA3"/>
</svg>