<svg xmlns="http://www.w3.org/2000/svg" width="24" height="24" viewBox="0 0 24 24" fill="none">
  <path fill-rule="evenodd" clip-rule="evenodd" d="M12 24C18.6276 24 24 18.6276 24 12C24 5.3724 18.6276 0 12 0C5.3724 0 0 5.3724 0 12C0 18.6276 5.3724 24 12 24ZM16.8792 7.1208C17.0477 7.28955 17.1424 7.5183 17.1424 7.7568C17.1424 7.9953 17.0477 8.22405 16.8792 8.3928L13.272 12L16.878 15.606C17.037 15.7766 17.1235 16.0023 17.1194 16.2354C17.1153 16.4686 17.0208 16.6911 16.8559 16.8559C16.6911 17.0208 16.4686 17.1153 16.2354 17.1194C16.0023 17.1235 15.7766 17.037 15.606 16.878L12 13.2744L8.394 16.8804C8.31161 16.9688 8.21225 17.0397 8.10185 17.0889C7.99145 17.1381 7.87227 17.1646 7.75143 17.1667C7.63058 17.1688 7.51055 17.1466 7.39848 17.1013C7.28642 17.0561 7.18462 16.9887 7.09915 16.9032C7.01369 16.8178 6.94632 16.716 6.90105 16.6039C6.85579 16.4919 6.83356 16.3718 6.83569 16.251C6.83782 16.1301 6.86427 16.011 6.91346 15.9006C6.96265 15.7902 7.03358 15.6908 7.122 15.6084L10.7256 12L7.1208 8.394C7.03238 8.31161 6.96145 8.21225 6.91226 8.10185C6.86307 7.99145 6.83662 7.87227 6.83449 7.75143C6.83236 7.63058 6.85459 7.51055 6.89985 7.39848C6.94512 7.28642 7.01249 7.18462 7.09795 7.09915C7.18342 7.01369 7.28522 6.94632 7.39728 6.90105C7.50935 6.85579 7.62938 6.83356 7.75023 6.83569C7.87107 6.83782 7.99025 6.86427 8.10065 6.91346C8.21105 6.96265 8.31041 7.03358 8.3928 7.122L12 10.7256L15.606 7.1196C15.7748 6.95106 16.0035 6.85639 16.242 6.85639C16.4805 6.85639 16.7093 6.95106 16.878 7.1196" fill="#F33326"/>
</svg>
